<svg viewBox="0 0 750 750" xmlns="http://www.w3.org/2000/svg"><g fill="currentColor"><path d="m554.69 180.46c-333.63 0-452.75 389.23-556.05 389.23 185.37 0 237.85-247.18 419.12-247.18l47.24-102.05z"/><path d="m749.31 375.08c0 107.48-87.14 194.61-194.62 194.61s-194.62-87.13-194.62-194.61 87.13-194.62 194.62-194.62c7.391-2e-3 14.776 0.412 22.12 1.24-78.731 10.172-136.59 78.893-133.2 158.2 3.393 79.313 66.907 142.84 146.22 146.25 79.311 3.411 148.05-54.43 158.24-133.16 0.826 7.331 1.24 14.703 1.24 22.08z"/></g></svg>