<svg xmlns="http://www.w3.org/2000/svg" preserveAspectRatio="xMidYMid" version="1.1" viewBox="0 0 256 256"><metadata/><path fill="#fff" d="m128 0c-70.692 0-128 57.308-128 128s57.308 128 128 128 128-57.308 128-128-57.308-128-128-128zm-51 64.268h3.334c16.733 0 16.732-5.78e-4 16.732 16.732v91.867c-1e-6 16.733 5.77e-4 16.732-16.732 16.732h-3.334c-16.733 0-16.732 5.8e-4 -16.732-16.732v-91.867c0-16.733-5.78e-4 -16.732 16.732-16.732zm44.041 0h37.537c32.178 0 52.627 32.273 52.627 63.025 0 30.752-20.627 62.307-52.627 62.307h-37.537c-5.699 0-8.5078-2.8088-8.5078-8.5078v-108.32c0-5.698 2.8088-8.5059 8.5078-8.5059z" mask="url(#mask-2)"/></svg>