<svg viewBox="0 0 448 448" xmlns="http://www.w3.org/2000/svg"><path d="m94.12 283.1c0 25.9-21.16 47.06-47.06 47.06s-47.06-21.16-47.06-47.06 21.16-47.06 47.06-47.06h47.06zm23.72 0c0-25.9 21.16-47.06 47.06-47.06s47.06 21.16 47.06 47.06v117.84c0 25.9-21.16 47.06-47.06 47.06s-47.06-21.16-47.06-47.06zm47.06-188.98c-25.9 0-47.06-21.16-47.06-47.06s21.16-47.06 47.06-47.06 47.06 21.16 47.06 47.06v47.06zm0 23.72c25.9 0 47.06 21.16 47.06 47.06s-21.16 47.06-47.06 47.06h-117.84c-25.9 0-47.06-21.16-47.06-47.06s21.16-47.06 47.06-47.06zm188.98 47.06c0-25.9 21.16-47.06 47.06-47.06s47.06 21.16 47.06 47.06-21.16 47.06-47.06 47.06h-47.06zm-23.72 0c0 25.9-21.16 47.06-47.06 47.06s-47.06-21.16-47.06-47.06v-117.84c0-25.9 21.16-47.06 47.06-47.06s47.06 21.16 47.06 47.06zm-47.06 188.98c25.9 0 47.06 21.16 47.06 47.06s-21.16 47.06-47.06 47.06-47.06-21.16-47.06-47.06v-47.06zm0-23.72c-25.9 0-47.06-21.16-47.06-47.06s21.16-47.06 47.06-47.06h117.84c25.9 0 47.06 21.16 47.06 47.06s-21.16 47.06-47.06 47.06z" fill="currentColor"/></svg>