<svg viewBox="0 0 48 48" xmlns="http://www.w3.org/2000/svg"><path d="m0 24c0 13.255 10.745 24 24 24s24-10.745 24-24-10.745-24-24-24-24 10.745-24 24zm19.6 11l0.4083-6.1177-3e-4 -3e-4 11.129-10.043c0.4884-0.4335-0.1066-0.6449-0.755-0.2517l-13.735 8.665-5.9326-1.8516c-1.2812-0.3923-1.2904-1.2727 0.2876-1.9056l23.118-8.9142c1.0559-0.4794 2.075 0.2536 1.6719 1.8696l-3.937 18.553c-0.2749 1.3184-1.0715 1.6337-2.1752 1.0247l-5.9973-4.4309-2.8827 2.8031c-0.0091 0.0088-0.0181 0.0176-0.0271 0.0264-0.3224 0.3139-0.5892 0.5736-1.1729 0.5736z" clip-rule="evenodd" fill="currentColor" fill-rule="evenodd"/></svg>