<svg xmlns="http://www.w3.org/2000/svg" xmlns:xlink="http://www.w3.org/1999/xlink" version="1.1" viewBox="0 0 1000 1115.2"><metadata/><defs><path id="a" d="m0 0h1024v1024h-1024z"/></defs><use width="100%" height="100%" fill="#fff" fill-opacity="0" transform="rotate(.704 1914.4 -5491.6)" xlink:href="#a"/><g><path fill="#fff" d="m105.76 154.15-1.263 714.59c-60.261 6.782-105.02-23.858-104.28-84.025l-0.216-594.25c2.312-188.02 175.85-231.02 280.22-154.52l530.2 314.93c74.563 53.572 88.403 151.53 49.965 218.76-6.873-52.739-29.067-83.101-73.823-113.74l-597.52-345.84c-44.756-30.639-82.453-23.58-83.286 44.109zm-54.377 751.54c44.941 15.597 90.16 8.63 128.04-13.47l621.16-353.43c36.958 53.109 28.79 105.66-16.706 135.19l-522.65 294.46c-75.673 36.68-172.98-2.127-209.85-62.757z" transform="matrix(1.1348 0 0 1.1348 -.0011348 -.013738)"/><path fill="#ffc230" d="m240.52 702.59 365.02-216.68-364.35-197.07z" transform="matrix(1.1348 0 0 1.1348 -.0011348 -.013738)"/></g></svg>