<?xml version="1.0" encoding="UTF-8"?><svg version="1.1" viewBox="0 0 1024 1025" xmlns="http://www.w3.org/2000/svg" xmlns:xlink="http://www.w3.org/1999/xlink"><defs><rect id="a" width="1024" height="1024"/><clipPath id="b"><use clip-rule="evenodd" xlink:href="#a"/></clipPath></defs><g clip-path="url(#b)"><use fill="#24292E" fill-opacity="0" xlink:href="#a"/><g transform="translate(70 18)"><path d="m105.3 156.12l7.522 719.97c-60.173 7.579-105.3-22.736-105.3-83.364l-7.5216-598.71c0-189.46 173-234.94 278.3-159.15l534.03 310.72c75.216 53.05 90.259 151.57 52.651 219.78-7.522-53.05-30.086-83.365-75.216-113.68l-601.73-341.04c-45.13-30.315-82.738-22.736-82.738 45.471z" fill="#fff"/><path transform="translate(60.173 535.05)" d="m0 378.93c45.13 15.158 90.259 7.579 127.87-15.157l616.77-363.77c37.607 53.05 30.086 106.1-15.044 136.42l-518.99 303.14c-75.216 37.893-173 0-210.6-60.629z" fill="#fff"/><path transform="translate(240.69 284.95)" d="M0 416.822L368.558 204.622L7.52159 0L0 416.822Z" fill="#FFC230"/></g></g></svg>
