<svg xmlns="http://www.w3.org/2000/svg" width="332" height="165" fill="none" viewBox="0 0 332 165"><circle cx="170" cy="52" r="28" fill="#131928"/><path fill="url(#paint0_linear)" fill-rule="evenodd" d="M166 96C192.51 96 214 74.5097 214 48C214 21.4903 192.51 0 166 0C139.49 0 118 21.4903 118 48C118 74.5097 139.49 96 166 96ZM198 52C198 67.464 185.464 80 170 80C154.536 80 142 67.464 142 52C142 49.1303 142.432 46.3615 143.234 43.7548C145.429 48.6165 150.319 52 156 52C163.732 52 170 45.732 170 38C170 32.3192 166.617 27.4287 161.755 25.2337C164.362 24.4317 167.13 24 170 24C185.464 24 198 36.536 198 52Z" clip-rule="evenodd"/><path fill="#131928" fill-rule="evenodd" d="M198 52C198 67.464 185.464 80 170 80C154.864 80 142.533 67.9897 142.017 52.9791C142.006 53.318 142 53.6584 142 54C142 70.5686 155.431 84 172 84C188.569 84 202 70.5686 202 54C202 37.4315 188.569 24 172 24C171.66 24 171.321 24.0057 170.983 24.0169C185.992 24.5347 198 36.865 198 52Z" clip-rule="evenodd" opacity=".2"/><path fill="url(#paint1_linear)" fill-rule="evenodd" d="M166 12C146.118 12 130 28.1177 130 48C130 50.2091 128.209 52 126 52C123.791 52 122 50.2091 122 48C122 23.6995 141.699 4 166 4C168.209 4 170 5.79086 170 8C170 10.2091 168.209 12 166 12Z" clip-rule="evenodd"/><path fill="#fff" d="M19.8201 165C16.0859 165 12.7107 164.159 9.69461 162.478C6.67851 160.749 4.30872 158.347 2.58523 155.272C0.861743 152.15 0 148.547 0 144.464C0 140.429 0.88568 136.85 2.65704 133.728C4.4284 130.605 6.84607 128.203 9.91005 126.522C12.974 124.841 16.3971 124 20.1792 124C23.9612 124 27.3843 124.841 30.4483 126.522C33.5122 128.203 35.9299 130.605 37.7013 133.728C39.4726 136.85 40.3583 140.429 40.3583 144.464C40.3583 148.499 39.4487 152.078 37.6295 155.2C35.8102 158.323 33.3207 160.749 30.161 162.478C27.0492 164.159 23.6022 165 19.8201 165ZM19.8201 157.866C21.9266 157.866 23.8894 157.362 25.7087 156.353C27.5758 155.344 29.0838 153.831 30.2328 151.814C31.3818 149.796 31.9563 147.346 31.9563 144.464C31.9563 141.582 31.4057 139.156 30.3046 137.186C29.2035 135.169 27.7433 133.656 25.9241 132.647C24.1049 131.638 22.142 131.134 20.0355 131.134C17.929 131.134 15.9662 131.638 14.147 132.647C12.3756 133.656 10.9633 135.169 9.91005 137.186C8.8568 139.156 8.33018 141.582 8.33018 144.464C8.33018 148.739 9.40736 152.054 11.5617 154.408C13.764 156.714 16.5167 157.866 19.8201 157.866Z"/><path fill="#fff" d="M63.029 157.002L74.2317 124.649H82.9209L67.8404 164.351H58.074L43.0653 124.649H51.8263L63.029 157.002Z"/><path fill="#fff" d="M124.656 143.527C124.656 145.016 124.56 146.361 124.369 147.562H94.1359C94.3753 150.733 95.5482 153.279 97.6547 155.2C99.7612 157.122 102.346 158.083 105.41 158.083C109.815 158.083 112.927 156.233 114.746 152.534H123.579C122.382 156.185 120.204 159.187 117.044 161.541C113.932 163.847 110.054 165 105.41 165C101.628 165 98.2292 164.159 95.2131 162.478C92.2448 160.749 89.899 158.347 88.1755 155.272C86.4999 152.15 85.6621 148.547 85.6621 144.464C85.6621 140.381 86.476 136.802 88.1037 133.728C89.7793 130.605 92.1012 128.203 95.0695 126.522C98.0855 124.841 101.533 124 105.41 124C109.145 124 112.472 124.817 115.392 126.45C118.313 128.083 120.587 130.389 122.214 133.367C123.842 136.298 124.656 139.684 124.656 143.527ZM116.11 140.933C116.062 137.907 114.985 135.481 112.879 133.656C110.772 131.83 108.163 130.917 105.051 130.917C102.227 130.917 99.809 131.83 97.7983 133.656C95.7876 135.433 94.5907 137.859 94.2077 140.933H116.11Z"/><path fill="#fff" d="M140.899 130.413C142.096 128.395 143.676 126.834 145.639 125.729C147.649 124.576 150.019 124 152.748 124V132.503H150.665C147.458 132.503 145.016 133.319 143.341 134.953C141.713 136.586 140.899 139.42 140.899 143.455V164.351H132.712V124.649H140.899V130.413Z"/><path fill="#fff" d="M173.199 165C170.087 165 167.287 164.448 164.797 163.343C162.356 162.19 160.417 160.653 158.98 158.731C157.544 156.762 156.778 154.576 156.682 152.174H165.156C165.3 153.855 166.09 155.272 167.526 156.425C169.01 157.53 170.853 158.083 173.056 158.083C175.354 158.083 177.125 157.65 178.37 156.786C179.662 155.873 180.309 154.72 180.309 153.327C180.309 151.838 179.59 150.733 178.154 150.012C176.766 149.292 174.54 148.499 171.476 147.634C168.507 146.818 166.09 146.025 164.223 145.257C162.356 144.488 160.728 143.311 159.339 141.726C157.999 140.141 157.329 138.051 157.329 135.457C157.329 133.343 157.951 131.422 159.196 129.692C160.441 127.915 162.212 126.522 164.51 125.513C166.856 124.504 169.537 124 172.553 124C177.053 124 180.668 125.153 183.396 127.459C186.173 129.716 187.657 132.815 187.849 136.754H179.662C179.519 134.977 178.8 133.559 177.508 132.503C176.215 131.446 174.468 130.917 172.266 130.917C170.111 130.917 168.46 131.326 167.311 132.142C166.162 132.959 165.587 134.04 165.587 135.385C165.587 136.442 165.97 137.33 166.736 138.051C167.502 138.772 168.436 139.348 169.537 139.78C170.638 140.165 172.266 140.669 174.42 141.293C177.292 142.062 179.638 142.855 181.458 143.671C183.325 144.44 184.928 145.593 186.269 147.13C187.609 148.667 188.304 150.709 188.351 153.255C188.351 155.513 187.729 157.53 186.484 159.308C185.24 161.085 183.468 162.478 181.17 163.487C178.92 164.496 176.263 165 173.199 165Z"/><path fill="#fff" d="M232.744 143.527C232.744 145.016 232.648 146.361 232.457 147.562H202.224C202.463 150.733 203.636 153.279 205.743 155.2C207.849 157.122 210.435 158.083 213.499 158.083C217.903 158.083 221.015 156.233 222.834 152.534H231.667C230.47 156.185 228.292 159.187 225.132 161.541C222.02 163.847 218.142 165 213.499 165C209.716 165 206.317 164.159 203.301 162.478C200.333 160.749 197.987 158.347 196.264 155.272C194.588 152.15 193.75 148.547 193.75 144.464C193.75 140.381 194.564 136.802 196.192 133.728C197.867 130.605 200.189 128.203 203.158 126.522C206.174 124.841 209.621 124 213.499 124C217.233 124 220.56 124.817 223.48 126.45C226.401 128.083 228.675 130.389 230.303 133.367C231.93 136.298 232.744 139.684 232.744 143.527ZM224.199 140.933C224.151 137.907 223.073 135.481 220.967 133.656C218.86 131.83 216.251 130.917 213.139 130.917C210.315 130.917 207.897 131.83 205.886 133.656C203.876 135.433 202.679 137.859 202.296 140.933H224.199Z"/><path fill="#fff" d="M277.066 143.527C277.066 145.016 276.97 146.361 276.778 147.562H246.545C246.785 150.733 247.958 153.279 250.064 155.2C252.171 157.122 254.756 158.083 257.82 158.083C262.224 158.083 265.336 156.233 267.156 152.534H275.988C274.792 156.185 272.613 159.187 269.453 161.541C266.342 163.847 262.464 165 257.82 165C254.038 165 250.639 164.159 247.623 162.478C244.654 160.749 242.309 158.347 240.585 155.272C238.909 152.15 238.072 148.547 238.072 144.464C238.072 140.381 238.886 136.802 240.513 133.728C242.189 130.605 244.511 128.203 247.479 126.522C250.495 124.841 253.942 124 257.82 124C261.554 124 264.881 124.817 267.802 126.45C270.722 128.083 272.996 130.389 274.624 133.367C276.252 136.298 277.066 139.684 277.066 143.527ZM268.52 140.933C268.472 137.907 267.395 135.481 265.288 133.656C263.182 131.83 260.573 130.917 257.461 130.917C254.636 130.917 252.219 131.83 250.208 133.656C248.197 135.433 247 137.859 246.617 140.933H268.52Z"/><path fill="#fff" d="M293.309 130.413C294.505 128.395 296.085 126.834 298.048 125.729C300.059 124.576 302.429 124 305.157 124V132.503H303.075C299.867 132.503 297.426 133.319 295.75 134.953C294.122 136.586 293.309 139.42 293.309 143.455V164.351H285.122V124.649H293.309V130.413Z"/><path fill="#fff" d="M320.151 130.413C321.348 128.395 322.928 126.834 324.891 125.729C326.901 124.576 329.271 124 332 124V132.503H329.917C326.71 132.503 324.268 133.319 322.593 134.953C320.965 136.586 320.151 139.42 320.151 143.455V164.351H311.964V124.649H320.151V130.413Z"/><defs><linearGradient id="paint0_linear" x1="166" x2="235.5" y1="0" y2="69.5" gradientUnits="userSpaceOnUse"><stop stop-color="#C395FC"/><stop offset="1" stop-color="#4F65F5"/></linearGradient><linearGradient id="paint1_linear" x1="146" x2="146" y1="8" y2="48" gradientUnits="userSpaceOnUse"><stop stop-color="#fff" stop-opacity=".4"/><stop offset="1" stop-color="#fff" stop-opacity="0"/></linearGradient></defs></svg>