<svg xmlns="http://www.w3.org/2000/svg" width="456" height="96" fill="none" viewBox="0 0 456 96"><path fill="url(#paint0_linear)" fill-rule="evenodd" d="M48 96C74.5097 96 96 74.5097 96 48C96 21.4903 74.5097 0 48 0C21.4903 0 0 21.4903 0 48C0 74.5097 21.4903 96 48 96ZM80.0001 52C80.0001 67.464 67.4641 80 52.0001 80C36.5361 80 24.0001 67.464 24.0001 52C24.0001 49.1303 24.4318 46.3615 25.2338 43.7548C27.4288 48.6165 32.3194 52 38.0001 52C45.7321 52 52.0001 45.732 52.0001 38C52.0001 32.3192 48.6166 27.4287 43.755 25.2337C46.3616 24.4317 49.1304 24 52.0001 24C67.4641 24 80.0001 36.536 80.0001 52Z" clip-rule="evenodd"/><path fill="#131928" fill-rule="evenodd" d="M80.0002 52C80.0002 67.464 67.4642 80 52.0002 80C36.864 80 24.5329 67.9897 24.017 52.9791C24.0057 53.318 24 53.6583 24 54C24 70.5685 37.4315 84 54 84C70.5685 84 84 70.5685 84 54C84 37.4315 70.5685 24 54 24C53.6597 24 53.3207 24.0057 52.9831 24.0169C67.9919 24.5347 80.0002 36.865 80.0002 52Z" clip-rule="evenodd" opacity=".2"/><path fill="url(#paint1_linear)" fill-rule="evenodd" d="M48 12C28.1177 12 12 28.1177 12 48C12 50.2091 10.2091 52 8 52C5.79086 52 4 50.2091 4 48C4 23.6995 23.6995 4 48 4C50.2091 4 52 5.79086 52 8C52 10.2091 50.2091 12 48 12Z" clip-rule="evenodd"/><path fill="#fff" d="M143.82 68.5C140.086 68.5 136.711 67.6593 133.695 65.978C130.679 64.2487 128.309 61.8468 126.585 58.7724C124.862 55.65 124 52.0472 124 47.964C124 43.9288 124.886 40.35 126.657 37.2276C128.428 34.1052 130.846 31.7033 133.91 30.022C136.974 28.3407 140.397 27.5 144.179 27.5C147.961 27.5 151.384 28.3407 154.448 30.022C157.512 31.7033 159.93 34.1052 161.701 37.2276C163.473 40.35 164.358 43.9288 164.358 47.964C164.358 51.9991 163.449 55.5779 161.629 58.7004C159.81 61.8228 157.321 64.2487 154.161 65.978C151.049 67.6593 147.602 68.5 143.82 68.5ZM143.82 61.3664C145.927 61.3664 147.889 60.862 149.709 59.8533C151.576 58.8445 153.084 57.3313 154.233 55.3137C155.382 53.2961 155.956 50.8462 155.956 47.964C155.956 45.0817 155.406 42.6558 154.305 40.6863C153.204 38.6687 151.743 37.1555 149.924 36.1467C148.105 35.138 146.142 34.6336 144.036 34.6336C141.929 34.6336 139.966 35.138 138.147 36.1467C136.376 37.1555 134.963 38.6687 133.91 40.6863C132.857 42.6558 132.33 45.0817 132.33 47.964C132.33 52.2393 133.407 55.5539 135.562 57.9077C137.764 60.2135 140.517 61.3664 143.82 61.3664Z"/><path fill="#fff" d="M187.029 60.5018L198.232 28.1485H206.921L191.84 67.8515H182.074L167.065 28.1485H175.826L187.029 60.5018Z"/><path fill="#fff" d="M248.656 47.0272C248.656 48.5164 248.56 49.8615 248.369 51.0624H218.136C218.375 54.2329 219.548 56.7789 221.655 58.7004C223.761 60.6219 226.346 61.5826 229.41 61.5826C233.815 61.5826 236.927 59.7332 238.746 56.0343H247.579C246.382 59.6851 244.204 62.6875 241.044 65.0413C237.932 67.3471 234.054 68.5 229.41 68.5C225.628 68.5 222.229 67.6593 219.213 65.978C216.245 64.2487 213.899 61.8468 212.175 58.7724C210.5 55.65 209.662 52.0472 209.662 47.964C209.662 43.8808 210.476 40.302 212.104 37.2276C213.779 34.1052 216.101 31.7033 219.069 30.022C222.086 28.3407 225.533 27.5 229.41 27.5C233.145 27.5 236.472 28.3166 239.392 29.9499C242.313 31.5832 244.587 33.889 246.214 36.8673C247.842 39.7976 248.656 43.1842 248.656 47.0272ZM240.11 44.4332C240.062 41.4069 238.985 38.981 236.879 37.1555C234.772 35.3301 232.163 34.4174 229.051 34.4174C226.227 34.4174 223.809 35.3301 221.798 37.1555C219.788 38.9329 218.591 41.3588 218.208 44.4332H240.11Z"/><path fill="#fff" d="M264.899 33.913C266.096 31.8954 267.676 30.3342 269.639 29.2293C271.649 28.0764 274.019 27.5 276.748 27.5V36.0026H274.665C271.458 36.0026 269.016 36.8193 267.341 38.4525C265.713 40.0858 264.899 42.92 264.899 46.9552V67.8515H256.712V28.1485H264.899V33.913Z"/><path fill="#fff" d="M297.199 68.5C294.087 68.5 291.287 67.9476 288.797 66.8427C286.356 65.6898 284.417 64.1526 282.98 62.2311C281.544 60.2616 280.778 58.0759 280.682 55.674H289.156C289.3 57.3553 290.09 58.7724 291.526 59.9253C293.01 61.0302 294.853 61.5826 297.056 61.5826C299.354 61.5826 301.125 61.1503 302.37 60.2856C303.662 59.3729 304.309 58.22 304.309 56.8269C304.309 55.3377 303.59 54.2329 302.154 53.5123C300.766 52.7917 298.54 51.9991 295.476 51.1344C292.507 50.3178 290.09 49.5252 288.223 48.7566C286.356 47.988 284.728 46.8111 283.339 45.2258C281.999 43.6406 281.329 41.551 281.329 38.9569C281.329 36.8433 281.951 34.9218 283.196 33.1924C284.441 31.4151 286.212 30.022 288.51 29.0132C290.856 28.0044 293.537 27.5 296.553 27.5C301.053 27.5 304.668 28.6529 307.396 30.9587C310.173 33.2165 311.657 36.3149 311.849 40.254H303.662C303.519 38.4766 302.8 37.0595 301.508 36.0026C300.215 34.9458 298.468 34.4174 296.266 34.4174C294.111 34.4174 292.46 34.8257 291.311 35.6424C290.162 36.459 289.587 37.5398 289.587 38.8849C289.587 39.9417 289.97 40.8304 290.736 41.551C291.502 42.2715 292.436 42.848 293.537 43.2803C294.638 43.6646 296.266 44.169 298.42 44.7935C301.292 45.5621 303.638 46.3547 305.458 47.1714C307.325 47.94 308.928 49.0929 310.269 50.6301C311.609 52.1673 312.304 54.2088 312.351 56.7548C312.351 59.0126 311.729 61.0302 310.484 62.8076C309.24 64.5849 307.468 65.978 305.17 66.9868C302.92 67.9956 300.263 68.5 297.199 68.5Z"/><path fill="#fff" d="M356.744 47.0272C356.744 48.5164 356.648 49.8615 356.457 51.0624H326.224C326.463 54.2329 327.636 56.7789 329.743 58.7004C331.849 60.6219 334.435 61.5826 337.499 61.5826C341.903 61.5826 345.015 59.7332 346.834 56.0343H355.667C354.47 59.6851 352.292 62.6875 349.132 65.0413C346.02 67.3471 342.142 68.5 337.499 68.5C333.716 68.5 330.317 67.6593 327.301 65.978C324.333 64.2487 321.987 61.8468 320.264 58.7724C318.588 55.65 317.75 52.0472 317.75 47.964C317.75 43.8808 318.564 40.302 320.192 37.2276C321.867 34.1052 324.189 31.7033 327.158 30.022C330.174 28.3407 333.621 27.5 337.499 27.5C341.233 27.5 344.56 28.3166 347.48 29.9499C350.401 31.5832 352.675 33.889 354.303 36.8673C355.93 39.7976 356.744 43.1842 356.744 47.0272ZM348.199 44.4332C348.151 41.4069 347.073 38.981 344.967 37.1555C342.86 35.3301 340.251 34.4174 337.139 34.4174C334.315 34.4174 331.897 35.3301 329.886 37.1555C327.876 38.9329 326.679 41.3588 326.296 44.4332H348.199Z"/><path fill="#fff" d="M401.066 47.0272C401.066 48.5164 400.97 49.8615 400.778 51.0624H370.545C370.785 54.2329 371.958 56.7789 374.064 58.7004C376.171 60.6219 378.756 61.5826 381.82 61.5826C386.224 61.5826 389.336 59.7332 391.156 56.0343H399.988C398.792 59.6851 396.613 62.6875 393.453 65.0413C390.342 67.3471 386.464 68.5 381.82 68.5C378.038 68.5 374.639 67.6593 371.623 65.978C368.654 64.2487 366.309 61.8468 364.585 58.7724C362.909 55.65 362.072 52.0472 362.072 47.964C362.072 43.8808 362.886 40.302 364.513 37.2276C366.189 34.1052 368.511 31.7033 371.479 30.022C374.495 28.3407 377.942 27.5 381.82 27.5C385.554 27.5 388.881 28.3166 391.802 29.9499C394.722 31.5832 396.996 33.889 398.624 36.8673C400.252 39.7976 401.066 43.1842 401.066 47.0272ZM392.52 44.4332C392.472 41.4069 391.395 38.981 389.288 37.1555C387.182 35.3301 384.573 34.4174 381.461 34.4174C378.636 34.4174 376.219 35.3301 374.208 37.1555C372.197 38.9329 371 41.3588 370.617 44.4332H392.52Z"/><path fill="#fff" d="M417.309 33.913C418.505 31.8954 420.085 30.3342 422.048 29.2293C424.059 28.0764 426.429 27.5 429.157 27.5V36.0026H427.075C423.867 36.0026 421.426 36.8193 419.75 38.4525C418.122 40.0858 417.309 42.92 417.309 46.9552V67.8515H409.122V28.1485H417.309V33.913Z"/><path fill="#fff" d="M444.151 33.913C445.348 31.8954 446.928 30.3342 448.891 29.2293C450.901 28.0764 453.271 27.5 456 27.5V36.0026H453.917C450.71 36.0026 448.268 36.8193 446.593 38.4525C444.965 40.0858 444.151 42.92 444.151 46.9552V67.8515H435.964V28.1485H444.151V33.913Z"/><defs><linearGradient id="paint0_linear" x1="48" x2="117.5" y1="0" y2="69.5" gradientUnits="userSpaceOnUse"><stop stop-color="#C395FC"/><stop offset="1" stop-color="#4F65F5"/></linearGradient><linearGradient id="paint1_linear" x1="28" x2="28" y1="8" y2="48" gradientUnits="userSpaceOnUse"><stop stop-color="#fff" stop-opacity=".4"/><stop offset="1" stop-color="#fff" stop-opacity="0"/></linearGradient></defs></svg>