<svg version="1.1" viewBox="0 0 575 289.83" xmlns="http://www.w3.org/2000/svg"><path fill="#f6c700" d="m575 24.91c-1.56-12.76-11.03-22.93-23.09-24.91h-528.59c-13.21 2.17-23.32 14.16-23.32 28.61v232.25c0 16 12.37 28.97 27.64 28.97h519.95c14.06 0 25.67-11.01 27.41-25.26v-239.66z"/><path stroke="#000" d="m69.35 58.24h45.63v175.65h-45.63v-175.65z"/><path stroke="#000" d="m201.2 139.15c-3.92-26.77-6.1-41.65-6.53-44.62-1.91-14.33-3.73-26.8-5.47-37.44h-59.16v175.65h39.97l0.14-115.98 16.82 115.98h28.47l15.95-118.56 0.15 118.56h39.84v-175.65h-59.61l-10.57 82.06z"/><path stroke="#000" d="m346.71 93.63c0.5 2.24 0.76 7.32 0.76 15.26v68.1c0 11.69-0.76 18.85-2.27 21.49-1.52 2.64-5.56 3.95-12.11 3.95v-115.3c4.97 0 8.36 0.53 10.16 1.57 1.8 1.05 2.96 2.69 3.46 4.93zm20.61 137.32c5.43-1.19 9.99-3.29 13.69-6.28 3.69-3 6.28-7.15 7.76-12.46 1.49-5.3 2.37-15.83 2.37-31.58v-61.68c0-16.62-0.65-27.76-1.66-33.42-1.02-5.67-3.55-10.82-7.6-15.44-4.06-4.62-9.98-7.94-17.76-9.96-7.79-2.02-20.49-3.04-42.58-3.04h-34.04v175.65h55.28c12.74-0.4 20.92-0.99 24.54-1.79z"/><path stroke="#000" d="m464.76 204.7c-0.84 2.23-4.52 3.36-7.3 3.36-2.72 0-4.53-1.08-5.45-3.25-0.92-2.16-1.37-7.09-1.37-14.81v-46.42c0-8 0.4-12.99 1.21-14.98 0.8-1.97 2.56-2.97 5.28-2.97 2.78 0 6.51 1.13 7.47 3.4 0.95 2.27 1.43 7.12 1.43 14.55v45.01c-0.29 9.25-0.71 14.62-1.27 16.11zm-58.08 26.51h41.08c1.71-6.71 2.65-10.44 2.84-11.19 3.72 4.5 7.81 7.88 12.3 10.12 4.47 2.25 11.16 3.37 16.34 3.37 7.21 0 13.43-1.89 18.68-5.68 5.24-3.78 8.58-8.26 10-13.41 1.42-5.16 2.13-13 2.13-23.54v-49.28c0-10.6-0.24-17.52-0.71-20.77s-1.87-6.56-4.2-9.95-5.72-6.02-10.16-7.9-9.68-2.82-15.72-2.82c-5.25 0-11.97 1.05-16.45 3.12-4.47 2.07-8.53 5.21-12.17 9.42v-57.14h-43.96v175.65z"/></svg>