<?xml version="1.0" encoding="UTF-8"?>
<svg xmlns="http://www.w3.org/2000/svg" version="1.1" viewBox="0 0 348 128">
  <defs>
    <style>
      .cls-1 {
        fill: #fff;
      }

      .cls-2 {
        fill: #eaaf20;
      }
    </style>
  </defs>
  <!-- Generator: Adobe Illustrator 28.7.1, SVG Export Plug-In . SVG Version: 1.2.0 Build 142)  -->
  <g>
    <g id="Layer_1">
      <path id="path4" class="cls-1" d="M58.2,23.5c-13.8,0-22.7,3.2-30.2,10.6v-8.2H1.3v100.9s.5.2,1.9.4c1.9.4,11.7,2,19-2.8,6.3-4.3,7.7-9.3,7.7-14.9v-14.5c7.7,6.5,16.4,9.3,28.6,9.3,26.2,0,46.4-16.9,46.4-39.5s-19.4-41.3-46.6-41.3h0ZM53.1,85.1c-14.8,0-26.5-9.7-26.5-21.4s13.8-20.8,26.5-20.8,26.5,9.1,26.5,21-11.7,21.2-26.5,21.2Z"/>
      <path id="path6" class="cls-1" d="M142.8,62.3c0,8.7,1.2,19.4,11.9,30.9.2.2.7.7.7.7-4.4,6-9.8,10-17.1,10s-11.2-2.4-15.9-6.5c-4.9-4.5-7.3-10.2-7.3-16.4V.8h27.4l.2,61.6Z"/>
      <polygon id="polygon8" class="cls-2" points="277.4 63.8 245.1 25.9 278.4 25.9 310.4 63.8 278.4 101.6 245.1 101.6 277.4 63.8"/>
      <polygon id="polygon10" class="cls-1" points="319.1 59.6 347.9 25.9 314.7 25.9 302.7 39.8 319.1 59.6"/>
      <path id="path12" class="cls-1" d="M302.7,87.8l5.6,6.1c5.4,6.7,12.4,10,20.6,10,8.7-.2,14.8-6.1,17.1-8.4,0,0-4.2-3-9.6-8-7.3-6.7-16.9-19-17.1-19.5l-16.6,19.7Z"/>
      <path id="path16" class="cls-1" d="M220.5,79.8c-5.6,4.1-9.4,6.3-17.1,6.3-13.8,0-21.8-7.8-23-16.4h73.3c.5-1.1.7-2.6.7-5,0-23.6-21.8-41.3-50.4-41.3s-49.4,18.1-49.4,40.6,22.2,40,50.1,40,36.3-8.7,45.4-24.2h-29.7ZM204.3,41.3c12.2,0,21.3,6.3,23.4,14.7h-46.4c2.3-8.7,11-14.7,23-14.7h0Z"/>
      <path id="path4-2" data-name="path4" class="cls-1" d="M57,23c-13.8,0-22.7,3.2-30.2,10.6v-8.2H0v100.9s.5.2,1.9.4c1.9.4,11.7,2,19-2.8,6.3-4.3,7.7-9.3,7.7-14.9v-14.5c7.7,6.5,16.4,9.3,28.6,9.3,26.2,0,46.4-16.9,46.4-39.5s-19.4-41.3-46.6-41.3h0ZM51.8,84.6c-14.8,0-26.5-9.7-26.5-21.4s13.8-20.8,26.5-20.8,26.5,9.1,26.5,21-11.7,21.2-26.5,21.2Z"/>
      <path id="path6-2" data-name="path6" class="cls-1" d="M141.5,61.9c0,8.7,1.2,19.4,11.9,30.9.2.2.7.7.7.7-4.4,6-9.8,10-17.1,10s-11.2-2.4-15.9-6.5c-4.9-4.5-7.3-10.2-7.3-16.4V.3h27.4l.2,61.6Z"/>
      <polygon id="polygon8-2" data-name="polygon8" class="cls-2" points="276.2 63.4 243.9 25.4 277.1 25.4 309.2 63.4 277.1 101.2 243.9 101.2 276.2 63.4"/>
      <polygon id="polygon10-2" data-name="polygon10" class="cls-1" points="317.9 59.1 346.7 25.4 313.4 25.4 301.5 39.4 317.9 59.1"/>
      <path id="path12-2" data-name="path12" class="cls-1" d="M301.5,87.4l5.6,6.1c5.4,6.7,12.4,10,20.6,10,8.7-.2,14.8-6.1,17.1-8.4,0,0-4.2-3-9.6-8-7.3-6.7-16.9-19-17.1-19.5l-16.6,19.7Z"/>
      <path id="path16-2" data-name="path16" class="cls-1" d="M219.3,79.4c-5.6,4.1-9.4,6.3-17.1,6.3-13.8,0-21.8-7.8-23-16.4h73.3c.5-1.1.7-2.6.7-5,0-23.6-21.8-41.3-50.4-41.3s-49.4,18.1-49.4,40.6,22.2,40,50.1,40,36.3-8.7,45.4-24.2h-29.7ZM203.1,40.9c12.2,0,21.3,6.3,23.4,14.7h-46.4c2.3-8.7,11-14.7,23-14.7h0Z"/>
    </g>
  </g>
</svg>