<svg xmlns="http://www.w3.org/2000/svg" xmlns:xlink="http://www.w3.org/1999/xlink" id="Layer_1" data-name="Layer 1" viewBox="0 0 320.03 103.61" style="&#10;"><defs><style>.cls-1{fill:#fff;}.cls-2{fill:url(#radial-gradient);}.cls-3{fill:#e5a00d;}</style><radialGradient id="radial-gradient" cx="258.33" cy="51.76" r="42.95" gradientUnits="userSpaceOnUse"><stop offset="0.17" stop-color="#f9be03"/><stop offset="0.51" stop-color="#e8a50b"/><stop offset="1" stop-color="#cc7c19"/></radialGradient></defs><title>plex-logo</title><polygon id="X" class="cls-1" points="320.03 -0.09 289.96 -0.09 259.88 51.76 289.96 103.61 320.01 103.61 289.96 51.79 320.03 -0.09"/><g id="chevron"><polygon class="cls-2" points="226.7 -0.09 256.78 -0.09 289.96 51.76 256.78 103.61 226.7 103.61 259.88 51.76 226.7 -0.09"/><polygon class="cls-3" points="226.7 -0.09 256.78 -0.09 289.96 51.76 256.78 103.61 226.7 103.61 259.88 51.76 226.7 -0.09"/></g><path id="E" class="cls-1" d="M216.32,103.61H156.49V-.09h59.83v18h-37.8V40.69H213.7v18H178.52V85.45h37.8Z"/><path id="L" class="cls-1" d="M82.07,103.61V-.09h22V85.45h42.07v18.16Z"/><path id="P" class="cls-1" d="M71.66,32.25Q71.66,49,61.2,57.87T31.44,66.73H22v36.88H0V-.09H33.14Q52-.09,61.83,8T71.66,32.25ZM22,48.71h7.24q10.15,0,15.18-4c3.37-2.66,5-6.56,5-11.67s-1.41-9-4.22-11.42S38,17.93,32,17.93H22Z"/></svg>