<?xml version="1.0" encoding="UTF-8"?>
<svg xmlns="http://www.w3.org/2000/svg" version="1.1" viewBox="0 0 320 103.6">
  <defs>
    <style>
      .cls-1 {
        fill: #fff;
      }

      .cls-2 {
        fill: #ebaf00;
      }
    </style>
  </defs>
  <!-- Generator: Adobe Illustrator 28.7.1, SVG Export Plug-In . SVG Version: 1.2.0 Build 142)  -->
  <g>
    <g id="Layer_1">
      <path id="path4" class="cls-1" d="M53.5,18.8c-12.7,0-20.9,2.6-27.8,8.6v-6.7H1.1v82.1s.4.2,1.7.3c1.7.3,10.8,1.7,17.5-2.3,5.8-3.5,7.1-7.6,7.1-12.1v-11.8c7.1,5.3,15.1,7.6,26.3,7.6,24.1,0,42.7-13.8,42.7-32.1s-17.9-33.6-42.9-33.6h0ZM48.7,68.9c-13.6,0-24.3-7.9-24.3-17.4s12.7-17,24.3-17,24.3,7.4,24.3,17.1-10.8,17.3-24.3,17.3Z"/>
      <path id="path6" class="cls-1" d="M131.3,50.4c0,7.1,1.1,15.8,11,25.1.2.2.6.6.6.6-4.1,4.8-9,8.2-15.7,8.2s-10.3-2-14.7-5.3c-4.5-3.6-6.7-8.3-6.7-13.3V.3h25.2l.2,50.1Z"/>
      <polygon id="polygon8" class="cls-2" points="255.2 51.6 225.4 20.7 256 20.7 285.5 51.6 256 82.4 225.4 82.4 255.2 51.6"/>
      <polygon id="polygon10" class="cls-1" points="293.5 48.1 320 20.7 289.4 20.7 278.4 32.1 293.5 48.1"/>
      <path id="path12" class="cls-1" d="M278.4,71.2l5.2,5c5,5.5,11.4,8.2,19,8.2,8-.2,13.6-5,15.7-6.8,0,0-3.9-2.4-8.8-6.5-6.7-5.5-15.5-15.5-15.7-15.9l-15.3,16.1Z"/>
      <path id="path16" class="cls-1" d="M202.8,64.7c-5.2,3.3-8.6,5.2-15.7,5.2-12.7,0-20-6.4-21.1-13.3h67.4c.4-.9.6-2.1.6-4.1,0-19.2-20-33.6-46.3-33.6s-45.5,14.7-45.5,33,20.5,32.6,46.1,32.6,33.4-7.1,41.8-19.7h-27.4ZM187.9,33.3c11.2,0,19.6,5.2,21.5,12h-42.7c2.2-7.1,10.1-12,21.1-12h0Z"/>
      <path id="path4-2" data-name="path4" class="cls-1" d="M52.4,18.4c-12.7,0-20.9,2.6-27.8,8.6v-6.7H0v82.1s.4.2,1.7.3c1.7.3,10.8,1.7,17.5-2.3,5.8-3.5,7.1-7.6,7.1-12.1v-11.8c7.1,5.3,15.1,7.6,26.3,7.6,24.1,0,42.7-13.8,42.7-32.1s-17.9-33.6-42.9-33.6h0ZM47.6,68.5c-13.6,0-24.3-7.9-24.3-17.4s12.7-17,24.3-17,24.3,7.4,24.3,17.1-10.8,17.3-24.3,17.3Z"/>
      <path id="path6-2" data-name="path6" class="cls-1" d="M130.1,50.1c0,7.1,1.1,15.8,11,25.1.2.2.6.6.6.6-4.1,4.8-9,8.2-15.7,8.2s-10.3-2-14.7-5.3c-4.5-3.6-6.7-8.3-6.7-13.3V0h25.2l.2,50.1Z"/>
      <polygon id="polygon8-2" data-name="polygon8" class="cls-2" points="254 51.3 224.3 20.4 254.9 20.4 284.4 51.3 254.9 82 224.3 82 254 51.3"/>
      <polygon id="polygon10-2" data-name="polygon10" class="cls-1" points="292.4 47.8 318.9 20.4 288.3 20.4 277.3 31.7 292.4 47.8"/>
      <path id="path12-2" data-name="path12" class="cls-1" d="M277.3,70.8l5.2,5c5,5.5,11.4,8.2,19,8.2,8-.2,13.6-5,15.7-6.8,0,0-3.9-2.4-8.8-6.5-6.7-5.5-15.5-15.5-15.7-15.9l-15.3,16.1Z"/>
      <path id="path16-2" data-name="path16" class="cls-1" d="M201.7,64.3c-5.2,3.3-8.6,5.2-15.7,5.2-12.7,0-20-6.4-21.1-13.3h67.4c.4-.9.6-2.1.6-4.1,0-19.2-20-33.6-46.3-33.6s-45.5,14.7-45.5,33,20.5,32.6,46.1,32.6,33.4-7.1,41.8-19.7h-27.4ZM186.8,32.9c11.2,0,19.6,5.2,21.5,12h-42.7c2.2-7.1,10.1-12,21.1-12h0Z"/>
    </g>
  </g>
</svg>