<?xml version="1.0" encoding="UTF-8"?>
<svg xmlns="http://www.w3.org/2000/svg" version="1.1" viewBox="0 0 361 157">
  <defs>
    <style>
      .cls-1 {
        fill: #fff;
      }

      .cls-2 {
        fill: #eaaf20;
      }
    </style>
  </defs>
  <!-- Generator: Adobe Illustrator 28.7.1, SVG Export Plug-In . SVG Version: 1.2.0 Build 142)  -->
  <g>
    <g id="Layer_1">
      <path id="path4" class="cls-1" d="M60.6,28.8c-14.3,0-23.5,3.9-31.3,13v-10H1.6v123.7s.5.2,1.9.5c1.9.5,12.1,2.5,19.6-3.4,6.5-5.3,8-11.4,8-18.3v-17.8c8,8,17,11.4,29.6,11.4,27.2,0,48-20.8,48-48.4s-20.1-50.7-48.3-50.7h0ZM55.2,104.3c-15.3,0-27.4-11.9-27.4-26.3s14.3-25.6,27.4-25.6,27.4,11.2,27.4,25.8-12.1,26-27.4,26Z"/>
      <path id="path6" class="cls-1" d="M148.1,76.5c0,10.7,1.2,23.7,12.4,37.9.2.2.7.9.7.9-4.6,7.3-10.2,12.3-17.7,12.3s-11.6-3-16.5-8c-5.1-5.5-7.5-12.6-7.5-20.1V.9h28.4l.2,75.6Z"/>
      <polygon id="polygon8" class="cls-2" points="287.6 78.3 254.1 31.7 288.6 31.7 321.8 78.3 288.6 124.6 254.1 124.6 287.6 78.3"/>
      <polygon id="polygon10" class="cls-1" points="330.8 73 360.6 31.7 326.2 31.7 313.8 48.9 330.8 73"/>
      <path id="path12" class="cls-1" d="M313.8,107.7l5.8,7.5c5.6,8.2,12.9,12.3,21.3,12.3,9-.2,15.3-7.5,17.7-10.3,0,0-4.4-3.7-9.9-9.8-7.5-8.2-17.5-23.3-17.7-24l-17.2,24.2Z"/>
      <path id="path16" class="cls-1" d="M228.7,97.9c-5.8,5-9.7,7.8-17.7,7.8-14.3,0-22.6-9.6-23.8-20.1h75.9c.5-1.4.7-3.2.7-6.2,0-29-22.6-50.7-52.2-50.7s-51.2,22.1-51.2,49.8,23,49.1,51.9,49.1,37.6-10.7,47.1-29.7h-30.8ZM211.9,50.7c12.6,0,22.1,7.8,24.3,18h-48c2.4-10.7,11.4-18,23.8-18h0Z"/>
      <path id="path4-2" data-name="path4" class="cls-1" d="M59.3,28.2c-14.3,0-23.5,3.9-31.3,13v-10H.4v123.7s.5.2,1.9.5c1.9.5,12.1,2.5,19.6-3.4,6.5-5.3,8-11.4,8-18.3v-17.8c8,8,17,11.4,29.6,11.4,27.2,0,48-20.8,48-48.4s-20.1-50.7-48.3-50.7h0ZM54,103.8c-15.3,0-27.4-11.9-27.4-26.3s14.3-25.6,27.4-25.6,27.4,11.2,27.4,25.8-12.1,26-27.4,26Z"/>
      <path id="path6-2" data-name="path6" class="cls-1" d="M146.9,75.9c0,10.7,1.2,23.7,12.4,37.9.2.2.7.9.7.9-4.6,7.3-10.2,12.3-17.7,12.3s-11.6-3-16.5-8c-5.1-5.5-7.5-12.6-7.5-20.1V.4h28.4l.2,75.6Z"/>
      <polygon id="polygon8-2" data-name="polygon8" class="cls-2" points="286.4 77.8 252.9 31.2 287.3 31.2 320.6 77.8 287.3 124.1 252.9 124.1 286.4 77.8"/>
      <polygon id="polygon10-2" data-name="polygon10" class="cls-1" points="329.5 72.5 359.4 31.2 324.9 31.2 312.6 48.3 329.5 72.5"/>
      <path id="path12-2" data-name="path12" class="cls-1" d="M312.6,107.2l5.8,7.5c5.6,8.2,12.9,12.3,21.3,12.3,9-.2,15.3-7.5,17.7-10.3,0,0-4.4-3.7-9.9-9.8-7.5-8.2-17.5-23.3-17.7-24l-17.2,24.2Z"/>
      <path id="path16-2" data-name="path16" class="cls-1" d="M227.4,97.4c-5.8,5-9.7,7.8-17.7,7.8-14.3,0-22.6-9.6-23.8-20.1h75.9c.5-1.4.7-3.2.7-6.2,0-29-22.6-50.7-52.2-50.7s-51.2,22.1-51.2,49.8,23,49.1,51.9,49.1,37.6-10.7,47.1-29.7h-30.8ZM210.7,50.1c12.6,0,22.1,7.8,24.3,18h-48c2.4-10.7,11.4-18,23.8-18h0Z"/>
    </g>
  </g>
</svg>