<?xml version="1.0" encoding="utf-8"?>
<!-- Generator: Adobe Illustrator 26.2.1, SVG Export Plug-In . SVG Version: 6.00 Build 0)  -->
<svg version="1.1" id="plex-logo" xmlns="http://www.w3.org/2000/svg" xmlns:xlink="http://www.w3.org/1999/xlink" x="0px" y="0px"
	 viewBox="0 0 148 68.2" style="enable-background:new 0 0 148 68.2;" xml:space="preserve">
<style type="text/css">
	.st0{fill:#FFFFFF;}
	.st1{fill:#EBAF00;}
</style>
<g>
	<g>
		<path class="st0" d="M24.3,12.2c-5.9,0-9.7,1.7-12.9,5.7v-4.4H0v54.2c0,0,0.2,0.1,0.8,0.2c0.8,0.2,5,1.1,8.1-1.5
			c2.7-2.3,3.3-5,3.3-8v-7.8c3.3,3.5,7,5,12.2,5c11.2,0,19.8-9.1,19.8-21.2C44.2,21.3,35.9,12.2,24.3,12.2z M22.1,45.3
			c-6.3,0-11.3-5.2-11.3-11.5c0-6.2,5.9-11.2,11.3-11.2c6.4,0,11.3,4.9,11.3,11.3C33.4,40.3,28.4,45.3,22.1,45.3z"/>
		<path class="st0" d="M60.4,33.1c0,4.7,0.5,10.4,5.1,16.6c0.1,0.1,0.3,0.4,0.3,0.4c-1.9,3.2-4.2,5.4-7.3,5.4
			c-2.4,0-4.8-1.3-6.8-3.5c-2.1-2.4-3.1-5.5-3.1-8.8l0-43.2h11.7L60.4,33.1z"/>
		<polygon class="st1" points="118.3,54.2 104.1,54.2 117.9,33.9 104.1,13.5 118.3,13.5 132,33.9 		"/>
		<polygon class="st0" points="135.7,31.6 148,13.5 133.8,13.5 128.7,21 		"/>
		<path class="st0" d="M128.7,46.8c0,0,2.4,3.3,2.4,3.3c2.3,3.6,5.3,5.4,8.8,5.4c3.7-0.1,6.3-3.3,7.3-4.5c0,0-1.8-1.6-4.1-4.3
			c-3.1-3.6-7.2-10.2-7.3-10.5L128.7,46.8z"/>
	</g>
	<path class="st0" d="M93.6,42.5c-2.4,2.2-4,3.4-7.3,3.4c-5.9,0-9.3-4.2-9.8-8.8h31.3c0.2-0.6,0.3-1.4,0.3-2.7
		c0-12.7-9.3-22.2-21.5-22.2C75,12.2,65.5,21.9,65.5,34c0,12,9.5,21.5,21.4,21.5c8.3,0,15.5-4.7,19.4-13H93.6z M86.7,21.8
		c5.2,0,9.1,3.4,10,7.9H76.9C77.9,25,81.6,21.8,86.7,21.8z"/>
</g>
</svg>
