<svg viewBox="0 0 691 197" xmlns="http://www.w3.org/2000/svg"><g fill="#F93208"><path d="M104.8 101.98l-8.017-.104V.638h24.186c26.088 0 28.29.125 34.659 1.973 10.334 2.998 18.223 9.496 22.57 18.591 2.114 4.422 2.942 7.959 3.16 13.486.49 12.49-4.809 23.35-14.189 29.082-2.81 1.717-2.94 1.853-2.482 2.58 1.234 1.961 20.736 35.548 20.736 35.713 0 .102-7.443.186-16.54.186h-16.538l-9.6-16.167c-5.28-8.892-9.803-16.445-10.051-16.784-.336-.46-1.193-.668-3.358-.817l-2.906-.199.182 16.983.181 16.983-6.988-.083c-3.843-.045-10.596-.13-15.005-.187v.002zm35.703-56.479c6.767-1.424 10.228-4.667 10.607-9.938.265-3.687-.611-6.202-2.954-8.482-3.104-3.023-7.437-4.07-16.926-4.092l-5.008-.01.234 3.298c.129 1.814.234 7.108.234 11.766v8.467l5.675-.245c3.122-.135 6.784-.479 8.138-.764z"/><path d="M217.68 103.68c-8.925-1.007-16.797-4.98-23.157-11.686-7.223-7.617-11.109-16.992-11.521-27.797-.221-5.788.216-9.62 1.598-14 5.206-16.508 19.973-26.343 40.714-27.116 3.541-.132 6.66-.043 8.828.25 17.8 2.417 30.89 14.82 34.788 32.96.824 3.837.816 12.629-.014 16.27-3.436 15.074-14.036 25.494-29.983 29.476-6.315 1.577-15.528 2.289-21.255 1.642l.002.001zm9.79-12.053c3.497-1.039 4.937-2.945 4.899-6.487-.013-1.189-.284-2.85-.603-3.693-1.675-4.433-1.661-4.376-1.255-5.267.218-.478.788-1.048 1.267-1.266 1.155-.526 1.845-.073 3.406 2.238 2.216 3.28 6.208 7.01 8.8 8.224 2.078.972 2.662 1.089 4.843.965 2.166-.122 2.733-.314 4.474-1.513 2.286-1.574 2.901-2.856 2.88-5.996-.022-3.146-1.654-5.743-4.899-7.795-1.985-1.256-6.21-2.548-9.285-2.84-3.92-.373-5.304-1.012-5.804-2.684-.487-1.625.025-2.958 1.578-4.107.791-.586 1.76-.783 4.684-.954 2.354-.137 4.09-.429 4.804-.807 5.106-2.702 5.438-11.468.563-14.856-1.364-.948-1.868-1.084-3.964-1.072-4.827.027-8.092 3.187-9.632 9.326-.125.496-.608 1.313-1.075 1.816-.986 1.064-2.84 1.226-4.458.39-1.63-.844-1.84-2.694-.901-7.985 1.167-6.583.533-9.34-2.563-11.154-1.971-1.155-5.475-1.56-7.557-.873-1.836.606-4.227 3.061-4.778 4.905-1.11 3.718-.23 6.074 3.888 10.396 1.73 1.816 3.25 3.635 3.38 4.042.59 1.861-1.654 3.997-3.723 3.543-1.18-.26-2.303-1.403-4.129-4.207-2.934-4.507-7.032-5.946-11.069-3.886-3.473 1.772-4.372 5.775-2.066 9.197 1.338 1.986 3.74 3.31 7.44 4.1 5.358 1.145 6.867 2.308 5.405 4.166-.758.964-.83.98-3.325.708-3.765-.409-5.224-.258-7.315.757-2.18 1.058-3.13 2.228-3.723 4.584-1.19 4.725 2.14 8.911 7.07 8.89 2.596-.012 4.567-1.084 7.862-4.274 3.64-3.525 4.29-3.897 5.465-3.127 1.286.843 1.447 2.092.566 4.395-2.004 5.236-.155 10.68 4.15 12.214 1.804.643 2.5.641 4.7-.012v-.001zm82.26 10.613c-13.527-.865-20.855-4.63-24.882-12.779-2.793-5.653-3.454-10.408-3.796-27.295l-.231-11.44h-1.89c-1.04 0-2.643-.103-3.562-.23l-1.672-.228V25.504h7.567V3.884h29.546v21.62h12.251v25.584H310.81l.001 11.44c.001 10.71.046 11.514.705 12.594 1.23 2.017 2.192 2.27 8.644 2.27h5.783v25.221l-6.035-.054c-3.32-.03-7.9-.173-10.179-.318l.001-.001zm54.85-.37c-15.629-1.51-22.78-7.814-25.148-22.169-.42-2.541-.655-7.163-.82-16.06-.127-6.87-.366-12.627-.531-12.791-.165-.165-1.827-.356-3.694-.425l-3.393-.124V25.147h8.013l-.266-10.81-.266-10.81h29.632v21.98h12.251v25.222H368.07l.108 11.62c.099 10.534.17 11.71.765 12.586 1.407 2.073 2.088 2.266 8.442 2.398l5.855.12v24.8l-7.837-.048c-4.31-.027-9.18-.18-10.823-.338v.003zm59.82-15.484c-12.392-1.561-23.904-7.774-29.557-15.952-5.345-7.732-8.064-16.437-8.07-25.834-.008-13.574 5.91-24.516 17.388-32.154 7.19-4.784 12.745-6.35 23.58-6.65 5.522-.152 6.994-.074 9.91.529 5.732 1.185 10.724 3.54 14.889 7.024 3.71 3.104 7.857 9.221 9.949 14.676 2.507 6.539 3.926 17.032 3.034 22.43l-.224 1.351h-26.076c-14.342 0-26.076.137-26.076.305 0 .167.623 1.267 1.383 2.444 3.325 5.144 8.623 7.708 15.898 7.695 5.447-.01 10.592-1.443 14.27-3.973l1.48-1.019 8.257 7.755a4956.96 4956.96 0 0 1 8.742 8.222c.752.723.057 1.652-3.155 4.222-4.948 3.96-11.022 6.685-18.337 8.23-4.039.853-13.138 1.22-17.284.698l-.001.001zm15.261-50.147c-.597-3.732-2.794-6.524-6.497-8.257-4.053-1.897-9.342-1.732-13.564.422-2.864 1.46-5.53 4.875-6.237 7.985l-.222.976 2.976.122c1.637.067 7.659.154 13.381.195l10.405.073-.242-1.516zm32.579 27.459V24.783h29.186v5.405c0 2.973.122 5.404.27 5.402.149 0 1.081-.988 2.072-2.192 3.332-4.05 8.5-7.667 13.356-9.348 15.184-5.257 31.395 6.568 33.65 24.545.23 1.846.377 12.826.377 28.336v25.322h-29.546v-45.98l-.956-1.92c-1.574-3.157-4.716-4.998-8.593-5.033-4.357-.039-7.609 2.62-9.305 7.61-.746 2.196-.773 2.913-.885 23.974l-.115 21.71h-29.51V63.699l-.001-.001zm10.48 130.792c-8.788-1.23-17.227-5.075-22.84-10.407-6.942-6.595-11.058-16.86-11.058-27.579 0-11.183 5.073-21.063 14.659-28.549 1.667-1.302 2.971-2.426 2.898-2.498-.072-.073-2.839.052-6.147.278-3.308.226-6.11.316-6.225.2-.355-.355 1.922-3.364 3.48-4.598 3.19-2.526 7.199-3.42 11.017-2.46 2.864.722 2.76.012-.53-3.59l-2.936-3.218 1.948-1.665c1.072-.915 2.027-1.664 2.122-1.664.095 0 1.345 1.867 2.778 4.149s2.738 4.23 2.9 4.33c.16.1.881-.706 1.602-1.791 3.104-4.677 7.504-6.781 11.726-5.609 2.828.786 2.828.95.009 4.474-1.401 1.752-2.548 3.213-2.548 3.248 0 .035 2.897-.005 6.438-.089 12.435-.293 20.725 1.609 27.681 6.351 2.383 1.624 5.892 5.185 7.65 7.763 1.36 1.992 5.074 9.644 5.943 12.24 1.872 5.603 2.154 15.51.606 21.324-1.093 4.105-3.901 9.586-6.676 13.032-6.267 7.783-16.447 13.536-27.95 15.794-3.569.7-13.148 1.01-16.548.534h.001zm94.74 1.06c-7.835-.993-14.881-3.57-21.428-7.837-7.49-4.881-13.128-13.98-15.556-25.105-.785-3.595-1.041-10.974-.508-14.619 1.861-12.729 9.63-22.96 22.28-29.339 2.397-1.209 4.443-1.904 7.706-2.617 4.038-.883 5.132-.972 12.01-.973 6.762 0 7.893.087 10.63.826 12.802 3.455 21.615 13.546 24.914 28.527.692 3.142.834 4.852.841 10.089l.008 6.305-26.206.18-26.206.18 1.103 1.931c3.137 5.493 8.726 8.339 16.375 8.339 5.387 0 11.187-1.673 14.461-4.17l1.178-.898 8.854 8.356 8.854 8.356-1.369 1.41c-7.941 8.184-23.91 12.838-37.942 11.06l.001-.001zm15.344-49.787c-.772-4.894-4.58-8.372-10.226-9.34-7.301-1.252-14.551 3.02-16.122 9.502-.235.97-.23.973 2.05 1.102 1.258.07 7.294.16 13.414.198l11.126.07-.242-1.532zm55.816 50.167c-4.146-.47-9.524-1.676-13.109-2.941-5.022-1.772-12.654-5.866-12.654-6.787 0-.3 10.534-18.822 11.044-19.42.071-.084 2.358.992 5.082 2.39 7.474 3.837 10.895 4.86 16.123 4.82 4.207-.033 6.906-.753 8.198-2.187 1.801-2 .976-4.904-1.627-5.729-.641-.203-3.68-.355-6.75-.337-3.905.022-6.358-.14-8.15-.543-10.216-2.29-18.196-8.883-21.45-17.724-.648-1.757-.8-2.961-.822-6.482l-.026-4.324 1.55-3.242c4.486-9.385 13.202-16.08 23.78-18.263 2.902-.6 4.445-.694 9.08-.559 6.014.176 9.605.82 15.15 2.717 5.699 1.95 13.459 5.599 13.42 6.312-.008.163-2.262 4.098-5.008 8.744-3.833 6.486-5.12 8.391-5.54 8.204-2.02-.9-11.14-3.8-13.518-4.3-1.586-.333-4.511-.626-6.501-.65-3.841-.047-4.94.31-6.373 2.073-.98 1.206-.833 3.52.29 4.576.892.838 1.163.878 6.577.973 13.405.235 21.78 3.14 27.71 9.613 3.54 3.862 5.384 8.272 5.743 13.73.511 7.753-2.25 14.496-8.28 20.224-4.138 3.93-5.794 4.937-11.207 6.813-5.89 2.041-15.988 3.062-22.733 2.298l.001.001zm-222.06-2.5c-3.115-.15-8.503-.882-10.832-1.473-10.841-2.75-16.058-8.96-18.094-21.535-.278-1.718-.477-6.2-.685-15.446l-.293-13.025-1.673-.158a47.682 47.682 0 0 0-3.647-.16l-1.975-.002v-25.224h7.878l-.122-9.108c-.068-5.01-.17-9.883-.23-10.828l-.107-1.72h29.78v21.912h12.23v25.478h-12.23l.002 10.892c0 6.814.101 11.252.269 11.855.332 1.197 1.622 2.697 2.711 3.152.61.254 2.32.344 6.565.344h5.74v25.224l-6.815-.049c-3.749-.027-7.56-.085-8.472-.129zm-100.01 2.48c-6.068-.899-12.181-4.26-18.039-9.92-3.615-3.492-5.672-6.254-7.7-10.338-3.03-6.103-4.177-10.835-4.387-18.104-.2-6.972.594-12.343 2.752-18.6 2.233-6.477 4.445-10.212 8.365-14.125 8.465-8.451 18.63-11.802 28.321-9.337 5.607 1.426 10.185 4.096 15.083 8.798l2.23 2.14v-9.5h27.772v76.946h-27.772v-4.84c0-2.663-.075-4.842-.167-4.842-.091 0-1.22 1.06-2.509 2.357-7.064 7.107-15.892 10.559-23.95 9.366l.001-.001zm17.685-28.317c5.786-2.845 9.1-11.159 6.994-17.547-1.157-3.512-4.26-6.42-8.273-7.753-3.876-1.286-6.61-1.145-10.106.524-4.513 2.154-7.192 6.602-7.192 11.943 0 3.888 1.271 7.003 3.95 9.682 4.024 4.024 10.164 5.347 14.627 3.152v-.001zM259.84 188.73c-.092-2.965-.179-11.364-.192-18.663-.013-7.3-.1-15.45-.192-18.113-.19-5.502-.425-6.309-2.411-8.306-2.323-2.336-6.327-3.183-9.46-2.001-2.747 1.036-4.837 3.8-5.47 7.233-.187 1.017-.278 8.578-.278 23.122v21.61h-14.778c-8.128 0-14.801-.03-14.829-.064-.028-.035-.114-10.383-.191-22.995l-.14-22.931-.866-1.597c-.997-1.838-2.242-3.055-4.157-4.062-1.198-.63-1.614-.708-3.767-.709-2.035 0-2.595.093-3.514.583-2.416 1.288-4.24 4.048-5.087 7.696-.406 1.753-.435 3.667-.35 23.122l.092 21.21h-29.53l-.17-22.972c-.092-12.635-.169-30.12-.169-38.855v-15.882h29.286l.071 3.627c.06 3.107.13 3.64.484 3.707.243.047 1.341-.84 2.675-2.162 2.7-2.676 5.053-4.087 9.126-5.475 11.078-3.774 22.042-1.153 30.246 7.23l2.203 2.251.692-1.181c3.247-5.54 12.361-9.526 21.781-9.526 7.805 0 14.775 2.657 19.708 7.512 5.118 5.037 8.184 12.777 8.68 21.916.077 1.401.205 13.239.286 26.307l.146 23.759h-29.758l-.168-5.392.001.001zm-153.06 6.29c-6.093-.998-10.52-2.705-15.396-5.935-11.61-7.69-18.797-22.407-18.135-37.134.81-18.046 12.392-31.634 30.62-35.927 7.981-1.88 17.076-2.158 24.066-.737 12.231 2.488 22.77 10.864 28.179 22.395 5.266 11.228 5.435 24.038.458 34.76-5.597 12.056-17.13 19.866-32.956 22.316-3.758.582-13.917.74-16.834.262h-.002zm13.14-27.525c4.448-.934 8.12-3.694 10.055-7.56 1-1.998 1.029-2.126 1.025-4.637-.004-3.002-.47-5.242-1.543-7.42-3.681-7.48-12.83-10.42-20.566-6.612-3.791 1.866-7.05 6.222-7.762 10.373-1.12 6.54 3.808 14.306 10.256 16.163 1.4.403 5.928.24 8.536-.307h-.001z"/><path d="M27.559 157.18v-36.689H.807V91.889l40.448.188c22.246.104 40.534.24 40.639.303.105.063.191 6.356.191 13.985v13.87H56.097v73.635H27.561v-36.69h-.002z"/></g></svg>