<svg width="44" height="44" viewBox="0 0 44 44" fill="none" xmlns="http://www.w3.org/2000/svg">
<path d="M43.5 0H0L43.5 43.5V0Z" fill="#31C48D"/>
<path fill-rule="evenodd" clip-rule="evenodd" d="M36.707 9.29303C36.8945 9.48056 36.9998 9.73487 36.9998 10C36.9998 10.2652 36.8945 10.5195 36.707 10.707L28.707 18.707C28.5195 18.8945 28.2652 18.9998 28 18.9998C27.7348 18.9998 27.4805 18.8945 27.293 18.707L23.293 14.707C23.1108 14.5184 23.0101 14.2658 23.0123 14.0036C23.0146 13.7414 23.1198 13.4906 23.3052 13.3052C23.4906 13.1198 23.7414 13.0146 24.0036 13.0124C24.2658 13.0101 24.5184 13.1109 24.707 13.293L28 16.586L35.293 9.29303C35.4805 9.10556 35.7348 9.00024 36 9.00024C36.2652 9.00024 36.5195 9.10556 36.707 9.29303Z" fill="#F7FAFC"/>
</svg>
