<svg width="264" viewBox="0 0 264 264" fill="none" xmlns="http://www.w3.org/2000/svg">
<circle cx="132" cy="132" r="123" fill="#5A67D8" stroke="#7F9CF5" stroke-width="18"/>
<path d="M42.608 143.864C42.608 125.72 47.312 110.936 56.72 99.512C66.704 87.128 80.384 80.936 97.76 80.936C110.336 80.936 119.792 84.008 126.128 90.152C132.464 96.2 135.632 105.656 135.632 118.52C135.632 138.104 130.64 153.608 120.656 165.032C110.768 176.264 97.52 181.88 80.912 181.88C67.952 181.88 58.304 178.664 51.968 172.232C45.728 165.704 42.608 156.248 42.608 143.864ZM80.48 114.056C76.16 131.336 74 146.792 74 160.424C74 163.688 74.528 166.376 75.584 168.488C76.736 170.6 78.752 171.656 81.632 171.656C84.608 171.656 87.008 170.984 88.832 169.64C90.656 168.2 92.288 165.896 93.728 162.728C96.032 157.544 98.24 149.48 100.352 138.536C102.56 127.496 103.76 119.72 103.952 115.208C104.144 110.6 104.24 106.568 104.24 103.112C104.24 99.656 103.712 96.824 102.656 94.616C101.6 92.408 99.632 91.304 96.752 91.304C93.968 91.304 91.616 92.168 89.696 93.896C86.144 97.16 83.072 103.88 80.48 114.056ZM198.842 112.472C200.282 109.592 201.002 106.808 201.002 104.12C201.002 101.432 200.858 99.368 200.57 97.928C200.282 96.392 199.802 95.048 199.13 93.896C197.69 91.4 195.53 90.152 192.65 90.152C189.098 90.152 185.882 91.448 183.002 94.04C179.93 96.728 178.394 100.184 178.394 104.408C178.394 107.096 179.306 109.496 181.13 111.608C183.05 113.624 185.45 115.592 188.33 117.512C191.21 119.432 194.282 121.352 197.546 123.272C200.81 125.192 203.882 127.304 206.762 129.608C213.386 134.888 216.698 141.08 216.698 148.184C216.698 152.984 215.402 157.448 212.81 161.576C210.314 165.608 206.954 169.112 202.73 172.088C193.514 178.616 182.81 181.88 170.618 181.88C160.73 181.88 153.242 180.296 148.154 177.128C143.066 173.864 140.522 169.784 140.522 164.888C140.522 156.152 143.93 150.68 150.746 148.472C152.666 147.8 155.066 147.464 157.946 147.464C160.922 147.464 164.09 148.088 167.45 149.336C165.914 153.272 165.146 157.016 165.146 160.568C165.146 168.248 167.882 172.088 173.354 172.088C176.906 172.088 180.122 170.792 183.002 168.2C185.978 165.608 187.466 162.872 187.466 159.992C187.466 157.016 186.506 154.472 184.586 152.36C182.762 150.248 180.458 148.376 177.674 146.744C174.89 145.016 171.866 143.336 168.602 141.704C165.434 140.072 162.458 138.104 159.674 135.8C153.146 130.52 149.882 123.656 149.882 115.208C149.882 109.736 151.226 104.888 153.914 100.664C156.602 96.344 160.106 92.744 164.426 89.864C173.066 84.008 182.666 81.08 193.226 81.08C203.882 81.08 211.754 82.664 216.842 85.832C222.026 89 224.618 93.272 224.618 98.648C224.618 103.352 222.794 107.192 219.146 110.168C215.978 112.664 212.474 113.912 208.634 113.912C204.794 113.912 201.53 113.432 198.842 112.472Z" fill="#F7FAFC"/>
</svg>
