<svg width="44" height="44" viewBox="0 0 44 44" fill="none" xmlns="http://www.w3.org/2000/svg">
<path d="M43.5 0H0L43.5 43.5V0Z" fill="#ED8936"/>
<path d="M31 5.79999C29.5678 5.79999 28.1943 6.36891 27.1816 7.38161C26.1689 8.39431 25.6 9.76782 25.6 11.2V14.4274L24.9637 15.0637C24.8379 15.1896 24.7522 15.3499 24.7175 15.5245C24.6828 15.699 24.7006 15.8799 24.7687 16.0444C24.8368 16.2088 24.9521 16.3494 25.1001 16.4482C25.2481 16.5471 25.422 16.5999 25.6 16.6H36.4C36.578 16.5999 36.7519 16.5471 36.8999 16.4482C37.0479 16.3494 37.1632 16.2088 37.2313 16.0444C37.2994 15.8799 37.3172 15.699 37.2825 15.5245C37.2478 15.3499 37.1621 15.1896 37.0363 15.0637L36.4 14.4274V11.2C36.4 9.76782 35.8311 8.39431 34.8184 7.38161C33.8057 6.36891 32.4322 5.79999 31 5.79999ZM31 20.2C30.2839 20.2 29.5972 19.9155 29.0908 19.4092C28.5845 18.9028 28.3 18.2161 28.3 17.5H33.7C33.7 18.2161 33.4155 18.9028 32.9092 19.4092C32.4028 19.9155 31.7161 20.2 31 20.2Z" fill="white"/>
</svg>
