<svg viewBox="0 0 560 560" xmlns="http://www.w3.org/2000/svg"><g transform="translate(33 140)"><path d="m43.802 267.32l237.94 23.482c4.7937 14.937 11.149 29.517 20.259 40.256l-230.27-30.125c-10.248-6.7519-20.861-19.877-27.936-33.612zm222.88-75.298c0.60053 20.906 3.4316 47.964 8.3462 71.017l-241.15-19.083c-7.518-22.739-9.8466-35.959-11.704-54.885l244.51 2.951zm8.3462-102.71c-4.9146 23.053-7.7456 50.111-8.3462 71.017l-244.51 2.951c1.8576-18.926 4.1862-32.146 11.704-54.885l241.15-19.083zm26.973-68.019c-9.1095 10.74-15.465 25.318-20.259 40.257l-237.94 23.48c7.0751-13.735 17.689-26.859 27.936-33.612l230.27-30.125z" fill="#fff"/><path d="m303.57 264.67c3.155-7.8209 14.337-12.586 22.367-12.028 8.5825 0.59581 17.699 9.6258 19.292 18.507 0.29589-0.32244 0.60578-0.62735 0.92093-0.92701 2.7558-2.6356 6.2084-4.3845 9.9867-4.8664-0.57777-2.562-0.71609-5.3045-0.3204-8.1188 1.3954-9.901 9.3336-17.326 18.422-17.252 5.8652 0.047314 11.011 3.0509 14.364 7.6649 0.29939-0.37501 0.6303-0.71848 0.95245-1.069 3.8343-19.991 6.2644-42.578 6.8177-66.547 1.8996-82.42-18.993-149.75-46.663-150.39-27.672-0.63962-51.644 65.656-53.544 148.08 0 0-1.4654 30.062 7.4042 86.951" fill="#00641E"/><path d="m490.91 354.8c1.6353-2.732 2.5492-6.0072 2.4862-9.4874 0.5305-11.245-7.1819-21.439-17.913-20.31 0.3099-1.2862 0.51299-2.6233 0.59178-4.0024 0.64255-11.264-7.1188-20.972-17.337-21.682-0.2241-0.014019-0.44471-0.021029-0.66706-0.028039 1.0627-2.795 1.5897-5.916 1.4024-9.2228-0.52875-9.3717-6.9858-17.268-15.386-18.822-3.0342-0.56076-5.9773-0.28213-8.6718 0.65188-2.5457-6.277-7.8909-10.933-14.393-11.916-0.51474-10.192-7.8699-18.58-17.34-19.238-5.9545-0.41356-11.426 2.3237-15.085 6.9061-3.3528-4.614-8.4985-7.6158-14.364-7.6632-9.0885-0.075352-17.027 7.3495-18.422 17.252-0.39569 2.8126-0.25737 5.555 0.3204 8.1188-3.7783 0.48015-7.2309 2.2308-9.9867 4.8646-0.31515 0.29966-0.62504 0.60457-0.92093 0.92701-1.5932-8.8811-10.71-17.909-19.292-18.507-8.0293-0.55726-19.357 4.3249-22.367 12.028 1.3201 13.434 9.71 50.053 40.055 82.903l0.26963 0.019276c2.9256 2.6496 6.7459 4.1093 10.818 3.7466 2.5247-0.22606 4.8498-1.1303 6.8527-2.5252l0.48848 0.033295c2.67 1.8558 5.8793 2.8266 9.2706 2.5252 1.2956-0.11566 2.5317-0.42758 3.7065-0.87269 2.9064 6.0142 9.3879 9.901 16.622 9.2631 5.6026-0.49417 10.365-3.5959 13.164-7.9611l0.90692 0.063086c2.7961 2.774 6.513 4.3897 10.522 4.2688 3.3143 5.0188 9.4019 8.1065 16.12 7.516 2.5299-0.22255 4.8918-0.95505 6.998-2.0643 3.5139 4.3266 9.2811 6.8991 15.609 6.3419 6.2557-0.5485 11.54-4.02 14.414-8.8197 2.8241 2.2693 6.3625 3.4872 10.12 3.1525 3.6452-0.32594 6.8842-2.0485 9.3179-4.6543l0.40619 0.028038c0.55326-0.80259 1.026-1.6245 1.4654-2.4533 0.010505-0.015772 0.019259-0.033296 0.028014-0.049067 0.059527-0.1104 0.13306-0.21905 0.18909-0.3312" fill="#FFD700"/><path d="m281.75 61.547l-237.94 23.48c7.0751-13.735 17.689-26.859 27.936-33.612l230.27-30.125c-9.1095 10.74-15.465 25.318-20.259 40.257zm20.259 269.51l-230.27-30.125c-10.248-6.7519-20.861-19.877-27.936-33.611l237.94 23.48c4.7937 14.937 11.149 29.517 20.259 40.256zm-268.13-87.102c-7.518-22.739-9.8466-35.957-11.704-54.885l244.51 2.951c0.60053 20.906 3.4316 47.964 8.3462 71.017l-241.15-19.083zm0-135.56l241.15-19.083c-4.9146 23.053-7.7456 50.111-8.3462 71.019l-244.51 2.9493c1.8576-18.926 4.1862-32.146 11.704-54.885zm344.72-82.679c-15.255-17.778-26.206-26.124-35.587-25.04-1.7491 0.22255-266.89 37.222-266.89 37.222-42.074 4.2828-75.7 65.432-76.117 138.28 0.4167 72.843 34.043 133.99 76.117 138.28 0 0 265.64 37.135 266.89 37.221 2.2183-0.014019 4.4086-0.31192 6.5673-0.86568-2.101-0.6256-4.0391-1.7208-5.6867-3.2139l-0.26963-0.019276c-30.345-32.848-38.735-69.47-40.055-82.903 0.003501-0.010514 0.010505-0.019276 0.014006-0.02979-0.003501 0.010514-0.010505 0.019276-0.014006 0.02979-8.8697-56.889-7.4042-86.951-7.4042-86.951 1.8996-82.42 25.872-148.72 53.544-148.08 27.67 0.63962 48.562 67.973 46.663 150.39-0.55326 23.969-2.9834 46.556-6.8177 66.547 3.9393-4.3512 9.2233-6.1842 14.133-5.8372 0.90342 0.064838 1.7823 0.2173 2.6437 0.41531 16.804-92.03-0.81238-181.89-27.729-215.44z" fill="#04A53C"/></g></svg>