<svg xmlns="http://www.w3.org/2000/svg" width="44" height="44" fill="none" viewBox="0 0 44 44"><path fill="#667EEA" d="M43.5 0H0L43.5 43.5V0Z"/><path fill="#fff" fill-rule="evenodd" d="M31 20.2C32.9096 20.2 34.7409 19.4414 36.0912 18.0912C37.4414 16.7409 38.2 14.9095 38.2 13C38.2 11.0904 37.4414 9.25908 36.0912 7.90882C34.7409 6.55856 32.9096 5.79999 31 5.79999C29.0904 5.79999 27.2591 6.55856 25.9088 7.90882C24.5586 9.25908 23.8 11.0904 23.8 13C23.8 14.9095 24.5586 16.7409 25.9088 18.0912C27.2591 19.4414 29.0904 20.2 31 20.2ZM31.9 9.39999C31.9 9.16129 31.8052 8.93237 31.6364 8.76359C31.4676 8.59481 31.2387 8.49999 31 8.49999C30.7613 8.49999 30.5324 8.59481 30.3636 8.76359C30.1948 8.93237 30.1 9.16129 30.1 9.39999V13C30.1 13.2387 30.1949 13.4675 30.3637 13.6363L32.9089 16.1824C32.9925 16.266 33.0918 16.3323 33.201 16.3776C33.3103 16.4228 33.4274 16.4461 33.5456 16.4461C33.6639 16.4461 33.781 16.4228 33.8903 16.3776C33.9995 16.3323 34.0988 16.266 34.1824 16.1824C34.266 16.0988 34.3323 15.9995 34.3776 15.8902C34.4229 15.781 34.4461 15.6639 34.4461 15.5456C34.4461 15.4274 34.4229 15.3103 34.3776 15.201C34.3323 15.0918 34.266 14.9925 34.1824 14.9089L31.9 12.6274V9.39999Z" clip-rule="evenodd"/></svg>